# xmcd
#
# Track frame offsets:
#	150
#	14997
#	35907
#	50396
#	64523
#	83285
#	101053
#	121870
#	143470
#	164037
#
# Disc length: 2527 seconds
#
# Revision: 1
# Processed by: cddbd v1.4PL0 Copyright (c) Steve Scherf et al.
# Submitted via: audiograbber 1.80
#
DISCID=8209dd0a
DTITLE=Jonathan Feldman Trio - Live In Rochester
DYEAR=1900
DGENRE=
TTITLE0=I've Got the World on a String
TTITLE1=Ain't Nobody's Business
TTITLE2=Phone Booth
TTITLE3=I Want You to Love Me
TTITLE4=Every Day I Have the Blues
TTITLE5=Trouble in Mind
TTITLE6=Stick With It
TTITLE7=Don't Throw Your Love on Me So Strong
TTITLE8=Diving Duck
TTITLE9=Moanin'
EXTD=Hearing Jonathan Feldman's group is like settling in for the evening with 
EXTD=a late-night d.j. who insists on spinning only the best in uptown sounds a
EXTD=nd lowdown blues - except that every cut features the same great piano tri
EXTD=o. In listening to this album, it's as if Skip James is singing standards,
EXTD=Albert King is playing piano, and Booker T. and the MGs are warming up on
EXTD=a Santana groove. \n
EXTT0=
EXTT1=
EXTT2=
EXTT3=
EXTT4=
EXTT5=
EXTT6=
EXTT7=
EXTT8=
EXTT9=
PLAYORDER=
